<svg xmlns="http://www.w3.org/2000/svg" class="rv-xy-plot__inner" width="1920" height="433"><g transform="translate(100,20)" class="rv-xy-plot__grid-lines undefined"><line x1="59.93036853295514" x2="59.93036853295514" y1="0" y2="373" class="rv-xy-plot__grid-lines__line"/><line x1="183.946403260099" x2="183.946403260099" y1="0" y2="373" class="rv-xy-plot__grid-lines__line"/><line x1="307.9624379872429" x2="307.9624379872429" y1="0" y2="373" class="rv-xy-plot__grid-lines__line"/><line x1="431.9784727143868" x2="431.9784727143868" y1="0" y2="373" class="rv-xy-plot__grid-lines__line"/><line x1="555.9945074415306" x2="555.9945074415306" y1="0" y2="373" class="rv-xy-plot__grid-lines__line"/><line x1="680.0105421686745" x2="680.0105421686745" y1="0" y2="373" class="rv-xy-plot__grid-lines__line"/><line x1="804.0265768958184" x2="804.0265768958184" y1="0" y2="373" class="rv-xy-plot__grid-lines__line"/><line x1="928.0426116229623" x2="928.0426116229623" y1="0" y2="373" class="rv-xy-plot__grid-lines__line"/><line x1="1052.058646350106" x2="1052.058646350106" y1="0" y2="373" class="rv-xy-plot__grid-lines__line"/><line x1="1176.0746810772498" x2="1176.0746810772498" y1="0" y2="373" class="rv-xy-plot__grid-lines__line"/><line x1="1300.0907158043938" x2="1300.0907158043938" y1="0" y2="373" class="rv-xy-plot__grid-lines__line"/><line x1="1424.1067505315377" x2="1424.1067505315377" y1="0" y2="373" class="rv-xy-plot__grid-lines__line"/><line x1="1548.1227852586815" x2="1548.1227852586815" y1="0" y2="373" class="rv-xy-plot__grid-lines__line"/><line x1="1672.1388199858254" x2="1672.1388199858254" y1="0" y2="373" class="rv-xy-plot__grid-lines__line"/></g><g transform="translate(100,20)" class="rv-xy-plot__grid-lines undefined"><line y1="373" y2="373" x1="0" x2="1770" class="rv-xy-plot__grid-lines__line"/><line y1="348.1333333333333" y2="348.1333333333333" x1="0" x2="1770" class="rv-xy-plot__grid-lines__line"/><line y1="323.26666666666665" y2="323.26666666666665" x1="0" x2="1770" class="rv-xy-plot__grid-lines__line"/><line y1="298.4" y2="298.4" x1="0" x2="1770" class="rv-xy-plot__grid-lines__line"/><line y1="273.5333333333333" y2="273.5333333333333" x1="0" x2="1770" class="rv-xy-plot__grid-lines__line"/><line y1="248.66666666666669" y2="248.66666666666669" x1="0" x2="1770" class="rv-xy-plot__grid-lines__line"/><line y1="223.8" y2="223.8" x1="0" x2="1770" class="rv-xy-plot__grid-lines__line"/><line y1="198.93333333333334" y2="198.93333333333334" x1="0" x2="1770" class="rv-xy-plot__grid-lines__line"/><line y1="174.06666666666666" y2="174.06666666666666" x1="0" x2="1770" class="rv-xy-plot__grid-lines__line"/><line y1="149.20000000000002" y2="149.20000000000002" x1="0" x2="1770" class="rv-xy-plot__grid-lines__line"/><line y1="124.33333333333334" y2="124.33333333333334" x1="0" x2="1770" class="rv-xy-plot__grid-lines__line"/><line y1="99.46666666666664" y2="99.46666666666664" x1="0" x2="1770" class="rv-xy-plot__grid-lines__line"/><line y1="74.60000000000002" y2="74.60000000000002" x1="0" x2="1770" class="rv-xy-plot__grid-lines__line"/><line y1="49.73333333333335" y2="49.73333333333335" x1="0" x2="1770" class="rv-xy-plot__grid-lines__line"/><line y1="24.866666666666674" y2="24.866666666666674" x1="0" x2="1770" class="rv-xy-plot__grid-lines__line"/><line y1="0" y2="0" x1="0" x2="1770" class="rv-xy-plot__grid-lines__line"/></g><g transform="translate(100,393)" class="rv-xy-plot__axis rv-xy-plot__axis--horizontal "><line x1="0" x2="1770" y1="0" y2="0" class="rv-xy-plot__axis__line" style="stroke: rgb(51, 51, 51);"/><g transform="translate(0, 0)" class="rv-xy-plot__axis__ticks"><g transform="translate(59.93036853295514, 0)" class="rv-xy-plot__axis__tick" style="stroke: rgb(153, 153, 153);"><line x1="0" x2="0" y1="0" y2="6" class="rv-xy-plot__axis__tick__line" style="stroke: rgb(51, 51, 51);"/><text text-anchor="middle" dy="0.72em" transform="translate(0, 14)" class="rv-xy-plot__axis__tick__text" style="stroke: none; fill: rgb(51, 51, 51);">4,200</text></g><g transform="translate(183.946403260099, 0)" class="rv-xy-plot__axis__tick" style="stroke: rgb(153, 153, 153);"><line x1="0" x2="0" y1="0" y2="6" class="rv-xy-plot__axis__tick__line" style="stroke: rgb(51, 51, 51);"/><text text-anchor="middle" dy="0.72em" transform="translate(0, 14)" class="rv-xy-plot__axis__tick__text" style="stroke: none; fill: rgb(51, 51, 51);">4,400</text></g><g transform="translate(307.9624379872429, 0)" class="rv-xy-plot__axis__tick" style="stroke: rgb(153, 153, 153);"><line x1="0" x2="0" y1="0" y2="6" class="rv-xy-plot__axis__tick__line" style="stroke: rgb(51, 51, 51);"/><text text-anchor="middle" dy="0.72em" transform="translate(0, 14)" class="rv-xy-plot__axis__tick__text" style="stroke: none; fill: rgb(51, 51, 51);">4,600</text></g><g transform="translate(431.9784727143868, 0)" class="rv-xy-plot__axis__tick" style="stroke: rgb(153, 153, 153);"><line x1="0" x2="0" y1="0" y2="6" class="rv-xy-plot__axis__tick__line" style="stroke: rgb(51, 51, 51);"/><text text-anchor="middle" dy="0.72em" transform="translate(0, 14)" class="rv-xy-plot__axis__tick__text" style="stroke: none; fill: rgb(51, 51, 51);">4,800</text></g><g transform="translate(555.9945074415306, 0)" class="rv-xy-plot__axis__tick" style="stroke: rgb(153, 153, 153);"><line x1="0" x2="0" y1="0" y2="6" class="rv-xy-plot__axis__tick__line" style="stroke: rgb(51, 51, 51);"/><text text-anchor="middle" dy="0.72em" transform="translate(0, 14)" class="rv-xy-plot__axis__tick__text" style="stroke: none; fill: rgb(51, 51, 51);">5,000</text></g><g transform="translate(680.0105421686745, 0)" class="rv-xy-plot__axis__tick" style="stroke: rgb(153, 153, 153);"><line x1="0" x2="0" y1="0" y2="6" class="rv-xy-plot__axis__tick__line" style="stroke: rgb(51, 51, 51);"/><text text-anchor="middle" dy="0.72em" transform="translate(0, 14)" class="rv-xy-plot__axis__tick__text" style="stroke: none; fill: rgb(51, 51, 51);">5,200</text></g><g transform="translate(804.0265768958184, 0)" class="rv-xy-plot__axis__tick" style="stroke: rgb(153, 153, 153);"><line x1="0" x2="0" y1="0" y2="6" class="rv-xy-plot__axis__tick__line" style="stroke: rgb(51, 51, 51);"/><text text-anchor="middle" dy="0.72em" transform="translate(0, 14)" class="rv-xy-plot__axis__tick__text" style="stroke: none; fill: rgb(51, 51, 51);">5,400</text></g><g transform="translate(928.0426116229623, 0)" class="rv-xy-plot__axis__tick" style="stroke: rgb(153, 153, 153);"><line x1="0" x2="0" y1="0" y2="6" class="rv-xy-plot__axis__tick__line" style="stroke: rgb(51, 51, 51);"/><text text-anchor="middle" dy="0.72em" transform="translate(0, 14)" class="rv-xy-plot__axis__tick__text" style="stroke: none; fill: rgb(51, 51, 51);">5,600</text></g><g transform="translate(1052.058646350106, 0)" class="rv-xy-plot__axis__tick" style="stroke: rgb(153, 153, 153);"><line x1="0" x2="0" y1="0" y2="6" class="rv-xy-plot__axis__tick__line" style="stroke: rgb(51, 51, 51);"/><text text-anchor="middle" dy="0.72em" transform="translate(0, 14)" class="rv-xy-plot__axis__tick__text" style="stroke: none; fill: rgb(51, 51, 51);">5,800</text></g><g transform="translate(1176.0746810772498, 0)" class="rv-xy-plot__axis__tick" style="stroke: rgb(153, 153, 153);"><line x1="0" x2="0" y1="0" y2="6" class="rv-xy-plot__axis__tick__line" style="stroke: rgb(51, 51, 51);"/><text text-anchor="middle" dy="0.72em" transform="translate(0, 14)" class="rv-xy-plot__axis__tick__text" style="stroke: none; fill: rgb(51, 51, 51);">6,000</text></g><g transform="translate(1300.0907158043938, 0)" class="rv-xy-plot__axis__tick" style="stroke: rgb(153, 153, 153);"><line x1="0" x2="0" y1="0" y2="6" class="rv-xy-plot__axis__tick__line" style="stroke: rgb(51, 51, 51);"/><text text-anchor="middle" dy="0.72em" transform="translate(0, 14)" class="rv-xy-plot__axis__tick__text" style="stroke: none; fill: rgb(51, 51, 51);">6,200</text></g><g transform="translate(1424.1067505315377, 0)" class="rv-xy-plot__axis__tick" style="stroke: rgb(153, 153, 153);"><line x1="0" x2="0" y1="0" y2="6" class="rv-xy-plot__axis__tick__line" style="stroke: rgb(51, 51, 51);"/><text text-anchor="middle" dy="0.72em" transform="translate(0, 14)" class="rv-xy-plot__axis__tick__text" style="stroke: none; fill: rgb(51, 51, 51);">6,400</text></g><g transform="translate(1548.1227852586815, 0)" class="rv-xy-plot__axis__tick" style="stroke: rgb(153, 153, 153);"><line x1="0" x2="0" y1="0" y2="6" class="rv-xy-plot__axis__tick__line" style="stroke: rgb(51, 51, 51);"/><text text-anchor="middle" dy="0.72em" transform="translate(0, 14)" class="rv-xy-plot__axis__tick__text" style="stroke: none; fill: rgb(51, 51, 51);">6,600</text></g><g transform="translate(1672.1388199858254, 0)" class="rv-xy-plot__axis__tick" style="stroke: rgb(153, 153, 153);"><line x1="0" x2="0" y1="0" y2="6" class="rv-xy-plot__axis__tick__line" style="stroke: rgb(51, 51, 51);"/><text text-anchor="middle" dy="0.72em" transform="translate(0, 14)" class="rv-xy-plot__axis__tick__text" style="stroke: none; fill: rgb(51, 51, 51);">6,800</text></g></g></g><g transform="translate(0,20)" class="rv-xy-plot__axis rv-xy-plot__axis--vertical "><line x1="100" x2="100" y1="0" y2="373" class="rv-xy-plot__axis__line" style="stroke: rgb(51, 51, 51);"/><g transform="translate(100, 0)" class="rv-xy-plot__axis__ticks"><g transform="translate(0, 373)" class="rv-xy-plot__axis__tick" style="stroke: rgb(153, 153, 153);"><line y1="0" y2="0" x1="0" x2="-6" class="rv-xy-plot__axis__tick__line" style="stroke: rgb(51, 51, 51);"/><text text-anchor="end" dy="0.32em" transform="translate(-14, 0)" class="rv-xy-plot__axis__tick__text" style="stroke: none; fill: rgb(51, 51, 51);">0.0</text></g><g transform="translate(0, 348.1333333333333)" class="rv-xy-plot__axis__tick" style="stroke: rgb(153, 153, 153);"><line y1="0" y2="0" x1="0" x2="-6" class="rv-xy-plot__axis__tick__line" style="stroke: rgb(51, 51, 51);"/><text text-anchor="end" dy="0.32em" transform="translate(-14, 0)" class="rv-xy-plot__axis__tick__text" style="stroke: none; fill: rgb(51, 51, 51);">0.2</text></g><g transform="translate(0, 323.26666666666665)" class="rv-xy-plot__axis__tick" style="stroke: rgb(153, 153, 153);"><line y1="0" y2="0" x1="0" x2="-6" class="rv-xy-plot__axis__tick__line" style="stroke: rgb(51, 51, 51);"/><text text-anchor="end" dy="0.32em" transform="translate(-14, 0)" class="rv-xy-plot__axis__tick__text" style="stroke: none; fill: rgb(51, 51, 51);">0.4</text></g><g transform="translate(0, 298.4)" class="rv-xy-plot__axis__tick" style="stroke: rgb(153, 153, 153);"><line y1="0" y2="0" x1="0" x2="-6" class="rv-xy-plot__axis__tick__line" style="stroke: rgb(51, 51, 51);"/><text text-anchor="end" dy="0.32em" transform="translate(-14, 0)" class="rv-xy-plot__axis__tick__text" style="stroke: none; fill: rgb(51, 51, 51);">0.6</text></g><g transform="translate(0, 273.5333333333333)" class="rv-xy-plot__axis__tick" style="stroke: rgb(153, 153, 153);"><line y1="0" y2="0" x1="0" x2="-6" class="rv-xy-plot__axis__tick__line" style="stroke: rgb(51, 51, 51);"/><text text-anchor="end" dy="0.32em" transform="translate(-14, 0)" class="rv-xy-plot__axis__tick__text" style="stroke: none; fill: rgb(51, 51, 51);">0.8</text></g><g transform="translate(0, 248.66666666666669)" class="rv-xy-plot__axis__tick" style="stroke: rgb(153, 153, 153);"><line y1="0" y2="0" x1="0" x2="-6" class="rv-xy-plot__axis__tick__line" style="stroke: rgb(51, 51, 51);"/><text text-anchor="end" dy="0.32em" transform="translate(-14, 0)" class="rv-xy-plot__axis__tick__text" style="stroke: none; fill: rgb(51, 51, 51);">1.0</text></g><g transform="translate(0, 223.8)" class="rv-xy-plot__axis__tick" style="stroke: rgb(153, 153, 153);"><line y1="0" y2="0" x1="0" x2="-6" class="rv-xy-plot__axis__tick__line" style="stroke: rgb(51, 51, 51);"/><text text-anchor="end" dy="0.32em" transform="translate(-14, 0)" class="rv-xy-plot__axis__tick__text" style="stroke: none; fill: rgb(51, 51, 51);">1.2</text></g><g transform="translate(0, 198.93333333333334)" class="rv-xy-plot__axis__tick" style="stroke: rgb(153, 153, 153);"><line y1="0" y2="0" x1="0" x2="-6" class="rv-xy-plot__axis__tick__line" style="stroke: rgb(51, 51, 51);"/><text text-anchor="end" dy="0.32em" transform="translate(-14, 0)" class="rv-xy-plot__axis__tick__text" style="stroke: none; fill: rgb(51, 51, 51);">1.4</text></g><g transform="translate(0, 174.06666666666666)" class="rv-xy-plot__axis__tick" style="stroke: rgb(153, 153, 153);"><line y1="0" y2="0" x1="0" x2="-6" class="rv-xy-plot__axis__tick__line" style="stroke: rgb(51, 51, 51);"/><text text-anchor="end" dy="0.32em" transform="translate(-14, 0)" class="rv-xy-plot__axis__tick__text" style="stroke: none; fill: rgb(51, 51, 51);">1.6</text></g><g transform="translate(0, 149.20000000000002)" class="rv-xy-plot__axis__tick" style="stroke: rgb(153, 153, 153);"><line y1="0" y2="0" x1="0" x2="-6" class="rv-xy-plot__axis__tick__line" style="stroke: rgb(51, 51, 51);"/><text text-anchor="end" dy="0.32em" transform="translate(-14, 0)" class="rv-xy-plot__axis__tick__text" style="stroke: none; fill: rgb(51, 51, 51);">1.8</text></g><g transform="translate(0, 124.33333333333334)" class="rv-xy-plot__axis__tick" style="stroke: rgb(153, 153, 153);"><line y1="0" y2="0" x1="0" x2="-6" class="rv-xy-plot__axis__tick__line" style="stroke: rgb(51, 51, 51);"/><text text-anchor="end" dy="0.32em" transform="translate(-14, 0)" class="rv-xy-plot__axis__tick__text" style="stroke: none; fill: rgb(51, 51, 51);">2.0</text></g><g transform="translate(0, 99.46666666666664)" class="rv-xy-plot__axis__tick" style="stroke: rgb(153, 153, 153);"><line y1="0" y2="0" x1="0" x2="-6" class="rv-xy-plot__axis__tick__line" style="stroke: rgb(51, 51, 51);"/><text text-anchor="end" dy="0.32em" transform="translate(-14, 0)" class="rv-xy-plot__axis__tick__text" style="stroke: none; fill: rgb(51, 51, 51);">2.2</text></g><g transform="translate(0, 74.60000000000002)" class="rv-xy-plot__axis__tick" style="stroke: rgb(153, 153, 153);"><line y1="0" y2="0" x1="0" x2="-6" class="rv-xy-plot__axis__tick__line" style="stroke: rgb(51, 51, 51);"/><text text-anchor="end" dy="0.32em" transform="translate(-14, 0)" class="rv-xy-plot__axis__tick__text" style="stroke: none; fill: rgb(51, 51, 51);">2.4</text></g><g transform="translate(0, 49.73333333333335)" class="rv-xy-plot__axis__tick" style="stroke: rgb(153, 153, 153);"><line y1="0" y2="0" x1="0" x2="-6" class="rv-xy-plot__axis__tick__line" style="stroke: rgb(51, 51, 51);"/><text text-anchor="end" dy="0.32em" transform="translate(-14, 0)" class="rv-xy-plot__axis__tick__text" style="stroke: none; fill: rgb(51, 51, 51);">2.6</text></g><g transform="translate(0, 24.866666666666674)" class="rv-xy-plot__axis__tick" style="stroke: rgb(153, 153, 153);"><line y1="0" y2="0" x1="0" x2="-6" class="rv-xy-plot__axis__tick__line" style="stroke: rgb(51, 51, 51);"/><text text-anchor="end" dy="0.32em" transform="translate(-14, 0)" class="rv-xy-plot__axis__tick__text" style="stroke: none; fill: rgb(51, 51, 51);">2.8</text></g><g transform="translate(0, 0)" class="rv-xy-plot__axis__tick" style="stroke: rgb(153, 153, 153);"><line y1="0" y2="0" x1="0" x2="-6" class="rv-xy-plot__axis__tick__line" style="stroke: rgb(51, 51, 51);"/><text text-anchor="end" dy="0.32em" transform="translate(-14, 0)" class="rv-xy-plot__axis__tick__text" style="stroke: none; fill: rgb(51, 51, 51);">3.0</text></g></g></g><path d="M0,372.9736188437193L2.6656626506022882,372.9192799958129L5.3313253012045765,372.8735414426973L7.996987951807428,372.75743918876356L10.662650602409718,372.70949796637717L13.328313253012006,372.7393804632493L15.993975903614295,372.63615545605614L18.659638554217146,372.5912754106801L21.325301204819436,372.55298979035257L23.99096385542172,372.4880799934291L26.65662650602401,372.3701293488574L29.3222891566263,372.2730082277399L31.987951807229148,372.1575851442123L34.65361445783144,372.0362520618033L37.319277108433724,371.8631579140778L39.98493975903602,371.7083083839846L42.6506024096383,371.54392149702215L45.31626506024115,371.43190059882045L47.98192771084344,371.19944904671746L50.64759036144573,370.96032137956314L53.31325301204802,370.7414188934436L55.97891566265087,370.3218552796975L58.64457831325316,369.88361979889373L61.31024096385545,369.2772977287741L63.97590361445773,368.6729092222244L66.64156626506002,367.8997114490193L69.30722891566288,367.0373243418418L71.97289156626518,365.9871287043894L74.63855421686745,364.8318703916866L77.30421686746973,363.5904115831782L79.96987951807203,362.41422336068206L82.63554216867487,361.348613359516L85.30120481927717,360.3214021891348L87.96686746987946,359.5547664960755L90.63253012048175,358.88778650226675L93.2981927710846,358.35316421935295L95.96385542168689,358.18961672336343L98.62951807228917,358.17797104415394L101.29518072289146,357.95281174242774L103.96084337349374,357.7269082227945L106.6265060240966,357.70273635591144L109.29216867469889,357.77770750424565L111.95783132530117,357.8719676660816L114.62349397590347,358.0441243237825L117.28915662650576,358.44914280781643L119.9548192771086,358.91624314131604L122.6204819277109,358.9333248137254L125.28614457831318,358.4334508859294L127.95180722891546,357.5613226995973L130.61746987951832,356.61211019161465L133.2831325301206,355.59093967589484L135.94879518072293,354.4340234653227L138.61445783132518,353.852849004357L141.28012048192747,353.9338683827655L143.94578313253035,353.6822575722599L146.6114457831326,353.09786440716977L149.2771084337349,352.6338528432341L151.9427710843372,352.04488625188293L154.60843373493947,350.97083098530726L157.27409638554232,350.00088818858967L159.93975903614464,349.363871721944L162.60542168674692,348.9921813221258L165.27108433734918,348.90305363693403L167.93674698795206,349.15954024538553L170.60240963855435,349.42445307395775L173.2680722891566,349.3731486335758L175.93373493975892,348.8943637682688L178.5993975903612,348.3841943456375L181.26506024096403,347.652631521527L183.93072289156635,346.95279030447824L186.59638554216863,346.14491970266045L189.26204819277092,345.4075066393508L191.9277108433732,344.4518933976403L194.59337349397606,343.5768862580434L197.25903614457835,342.9521168410252L199.92469879518063,342.44275538861297L202.59036144578292,342.0809884677818L205.25602409638577,341.737844749634L207.92168674698806,341.4271784999635L210.58734939759034,341.1462325120304L213.25301204819266,341.2978840346385L215.91867469879492,341.48699058802606L218.58433734939777,341.5374006689085L221.25000000000006,341.3485190016584L223.91566265060234,340.32031397568915L226.58132530120463,339.1850904165948L229.24698795180748,338.43785188193186L231.91265060240977,337.87500767107383L234.57831325301206,337.6538298396982L237.24397590361437,337.4575432176333L239.90963855421666,336.8842652353448L242.57530120481948,336.06039573869094L245.2409638554218,334.98641082890884L247.90662650602408,334.1223613431589L250.57228915662637,333.63680814731777L253.23795180722868,333.5480811791997L255.9036144578315,333.898675970334L258.5692771084338,334.55240872624506L261.2349397590361,335.1436372247312L263.9006024096384,335.4959699629707L266.56626506024065,334.80237388090086L269.23192771084354,333.83177488481965L271.89759036144585,333.46971721893976L274.56325301204805,333.4103760495182L277.22891566265037,333.1035045264828L279.89457831325325,332.48239937358585L282.5602409638555,331.7617000462832L285.22590361445776,331.14267050438525L287.8915662650601,330.8736179485393L290.5572289156624,330.736209498706L293.2228915662652,331.06933234070823L295.88855421686753,331.5155023211298L298.5542168674698,331.400882416052L301.2198795180721,331.15759913086544L303.88554216867493,330.90064519545246L306.55120481927725,330.5244790232995L309.2168674698795,329.54404858793424L311.8825301204818,328.6226124604766L314.54819277108413,328.05557463610774L317.21385542168696,327.47567255615365L319.8795180722893,326.95375254585645L322.54518072289153,326.579662177355L325.21084337349384,326.55532046495233L327.8765060240961,326.5085494051996L330.542168674699,326.49025859423665L333.20783132530124,326.5823295829028L335.8734939759035,326.5068756365119L338.5391566265058,325.969754047427L341.20481927710813,324.8908083808936L343.87048192771096,324.36530364555034L346.5361445783132,325.01659298198376L349.2018072289155,325.3358116041508L351.86746987951784,324.01117606208686L354.53313253012067,322.8597718430341L357.198795180723,322.38892284707924L359.86445783132524,321.5230856681738L362.53012048192755,320.8119793549688L365.19578313252987,320.5198980155484L367.8614457831327,320.8084542846892L370.52710843373495,321.1012922855849L373.19277108433727,320.2112699182483L375.8584337349396,318.60123075377555L378.5240963855424,316.41427831131637L381.1897590361447,314.4042203098917L383.855421686747,314.1894014324333L386.5210843373493,314.83357708183917L389.18674698795155,314.41845656743305L391.85240963855443,312.98474752021133L394.5180722891567,311.334359014718L397.18373493975895,310.128694638611L399.84939759036126,309.8660768405089L402.51506024096415,309.87542387302705L405.1807228915664,309.47433126132216L407.84638554216866,309.52458493357915L410.512048192771,308.4903346194732L413.1777108433733,306.17431868601176L415.84337349397555,304.0768879465444L418.50903614457843,303.6696568201014L421.1746987951807,304.19709044565906L423.840361445783,303.8375828280872L426.5060240963853,301.92654023019236L429.17168674698814,301.09732622110414L431.8373493975904,301.2562959417344L434.5030120481927,301.21946860082534L437.16867469879503,300.18223799459025L439.8343373493973,298.6215341239013L442.5000000000001,298.13424654441144L445.1656626506024,298.82661428863963L447.8313253012047,298.76221959847663L450.49698795180706,298.36042209174315L453.1626506024099,298.2743823852586L455.82831325301214,298.7256615648173L458.49397590361446,298.08591542999363L461.1596385542167,298.1784424822025L463.825301204819,301.13745194418016L466.4909638554219,308.31170563956374L469.1566265060241,309.93133613764047L471.8222891566265,303.6930096174694L474.48795180722874,301.24447968535554L477.15361445783157,298.39634494908296L479.8192771084339,295.4550688189683L482.48493975903614,296.0078279206579L485.1506024096384,297.8690027364943L487.81626506024077,295.3039183055944L490.48192771084297,290.4269245390361L493.14759036144585,290.3775830085897L495.81325301204816,291.04690645765436L498.4789156626504,291.5849296527928L501.14457831325274,291.80917096779297L503.8102409638556,295.38408598904266L506.4759036144578,294.4617353189815L509.1415662650602,289.4273974778647L511.80722891566245,288.81242484416555L514.4728915662648,290.71189519778864L517.1385542168676,289.219450772446L519.8042168674699,285.37982949634954L522.4698795180722,284.2455997624729L525.1355421686744,285.58481754131765L527.8012048192772,287.270914227979L530.4668674698796,284.0002420037957L533.1325301204819,283.1655332900632L535.7981927710842,282.4934609766002L538.4638554216865,280.9118162643191L541.1295180722893,283.2384260952923L543.7951807228917,286.02038661450104L546.4608433734938,282.3908598264755L549.1265060240961,279.74844259706686L551.792168674699,279.1824554009353L554.4578313253013,281.643535639397L557.1234939759036,283.05768382487975L559.7891566265059,282.22612656024376L562.4548192771082,282.9464052051763L565.1204819277106,282.3455436276341L567.7861445783134,280.13719141050035L570.4518072289155,278.01974834916285L573.1174698795179,275.6638300301808L575.7831325301202,276.8814605204957L578.448795180723,280.58669456219275L581.1144578313254,277.025165599955L583.7801204819276,274.38127623226984L586.44578313253,273.4649948349605L589.1114457831322,270.2441388086112L591.7771084337351,269.2611407536856L594.4427710843373,271.25742533401063L597.1084337349396,271.52004522245306L599.7740963855418,271.53227225187226L602.4397590361448,273.312052801151L605.105421686747,272.7975318452275L607.7710843373493,268.3329730849472L610.4367469879517,266.13743890951434L613.1024096385539,268.12109756802266L615.7680722891569,269.71189043783147L618.433734939759,268.1747913170886L621.0993975903613,268.61586204942375L623.7650602409636,265.92158857764474L626.4307228915665,264.0737611976876L629.0963855421687,266.6826361710409L631.7620481927711,269.7005591514508L634.4277108433733,269.2072704625872L637.0933734939757,268.8562297123466L639.7590361445779,271.02887353479935L642.4246987951808,271.06747652011046L645.0903614457831,269.7605598996297L647.7560240963853,268.9290283031703L650.4216867469881,267.5981913668208L653.0873493975905,268.34599295523356L655.7530120481928,277.44163042529004L658.4186746987951,285.5774632283256L661.0843373493974,281.3089700950611L663.7499999999997,271.6108971715187L666.4156626506025,277.9443068331491L669.0813253012047,277.58029197309827L671.746987951807,271.2948726550112L674.4126506024094,269.82466981144773L677.0783132530122,266.70703204761554L679.7439759036145,267.3170427680352L682.4096385542168,268.16418208468804L685.0753012048191,265.115639936689L687.7409638554213,264.3549023627886L690.4066265060243,263.2439479260076L693.0722891566264,267.0326906929507L695.7379518072288,267.9530271602847L698.403614457831,264.57282517229413L701.0692771084339,260.2508873969303L703.7349397590363,258.8144671108224L706.4006024096385,259.65748940557995L709.0662650602409,260.5272196147887L711.7319277108431,259.7343950801327L714.3975903614453,260.50138952424504L717.0632530120482,269.2833723249004L719.7289156626505,272.4638376212455L722.3945783132527,267.9292077022627L725.0602409638557,261.57980228161347L727.7259036144579,259.98615979877013L730.3915662650603,257.4171148374287L733.0572289156626,253.28907121263268L735.7228915662648,255.06177467332543L738.3885542168671,258.48518310979625L741.0542168674699,255.91411304491265L743.7198795180722,252.3205500301692L746.3855421686745,251.22569722044426L749.0512048192768,252.94296594424767L751.7168674698796,254.62914958342185L754.382530120482,259.1704976255044L757.0481927710842,261.26533794186616L759.7138554216866,255.46194097467588L762.3795180722888,254.20591960447726L765.0451807228917,255.39929809645838L767.710843373494,254.31241781894914L770.3765060240962,252.8788189364049L773.0421686746986,249.67090377566257L775.7078313253014,248.66666666666669L778.3734939759037,252.3318375218647L781.039156626506,256.46165553207294L783.7048192771083,256.5719408026679L786.3704819277106,252.4369163492429L789.0361445783128,252.11403714359795L791.7018072289156,252.37259397736983L794.3674698795179,253.52728241249974L797.0331325301203,256.26129625155204L799.6987951807231,257.4132673338419L802.3644578313254,258.63986725789374L805.0301204819277,260.49898808827413L807.69578313253,258.4965826147738L810.3614457831322,255.71786291821417L813.0271084337345,255.06330940401145L815.6927710843373,255.9933512901653L818.3584337349397,256.7005678996961L821.024096385542,257.7112182525575L823.6897590361448,256.25744116948454L826.3554216867471,253.9415666809532L829.0210843373494,256.121455483071L831.6867469879518,256.2070119184573L834.352409638554,256.30230909432254L837.0180722891562,256.71705151727264L839.6837349397591,257.31189330613057L842.3493975903614,257.3721619774066L845.0150602409637,257.78044212337767L847.680722891566,260.9703466591342L850.3463855421688,261.72579631624217L853.0120481927712,260.12860483188234L855.6777108433735,259.61156306910067L858.3433734939757,259.9929209925745L861.009036144578,260.8475310640533L863.6746987951802,261.9137825613366L866.3403614457831,263.0534515116601L869.0060240963854,263.87997744923837L871.6716867469877,264.4301475794647L874.3373493975905,263.3757911002767L877.0030120481929,264.13779297851124L879.6686746987951,267.2453399842864L882.3343373493975,267.7536215841907L884.9999999999997,267.0419485691104L887.665662650602,266.64533130118065L890.3313253012049,266.84738847059737L892.9969879518071,266.4979595966874L895.6626506024094,267.1861911071546L898.3283132530122,268.49434757247224L900.9939759036147,269.59744324750613L903.6596385542169,271.25776639509087L906.3253012048192,272.2279421675077L908.9909638554213,272.0489068062973L911.6566265060236,270.9038942319494L914.3222891566267,272.2251931951258L916.9879518072289,275.5745614252515L919.6536144578312,275.3561669080889L922.3192771084334,274.068621101397L924.9849397590363,274.3142366535798L927.6506024096385,272.4158006189993L930.316265060241,270.1059167697338L932.9819277108431,272.0669483317527L935.6475903614454,274.1645339686896L938.3132530120477,273.20064896349743L940.9789156626505,272.8182165609235L943.644578313253,271.86554388229837L946.3102409638552,272.64153584813715L948.975903614458,273.59656199473L951.6415662650603,273.4529885815556L954.3072289156626,273.01759480982116L956.9728915662649,274.1142779318387L959.6385542168672,276.23602508917963L962.3042168674694,276.97033725686543L964.9698795180723,275.6984766681852L967.6355421686745,274.2503346088355L970.3012048192768,273.5805629103092L972.9668674698798,274.54756130285665L975.6325301204821,276.5944647127988L978.2981927710844,277.81016642088287L980.9638554216866,277.17931172378127L983.6295180722888,276.2042041360405L986.2951807228912,276.7869131638764L988.9608433734941,278.45341344933206L991.6265060240963,280.0840090518127L994.2921686746986,280.0164321986007L996.9578313253008,277.51222949217015L999.6234939759037,275.70212153576426L1002.2891566265062,275.102455164139L1004.9548192771083,275.2889566282938L1007.6204819277106,275.2060963871106L1010.2861445783128,275.13636499123186L1012.9518072289156,275.3142921468944L1015.6174698795181,275.885612195693L1018.2831325301204,276.821867935346L1020.9487951807226,277.12202249242335L1023.6144578313255,276.61924156263996L1026.2801204819277,276.0684208463531L1028.94578313253,274.8380936792387L1031.6114457831325,274.8465372797998L1034.2771084337346,275.3744017768328L1036.942771084337,276.35478412209983L1039.6084337349398,276.4977047956785L1042.274096385542,275.47774610398915L1044.9397590361443,274.3420062805325L1047.6054216867471,273.52818478229733L1050.2710843373495,273.11532679470446L1052.9367469879517,273.05828029437635L1055.602409638554,272.6967745752809L1058.2680722891564,272.2517059084809L1060.9337349397588,271.55362594150654L1063.5993975903616,270.9201813256315L1066.2650602409637,270.9638606475002L1068.930722891566,271.1399399901753L1071.5963855421685,271.29509685336717L1074.2620481927713,271.43993911109254L1076.9277108433735,271.9826374471514L1079.5933734939758,273.1118965210824L1082.259036144578,274.59598236448966L1084.9246987951803,275.58261775391577L1087.5903614457834,275.5555681439811L1090.2560240963855,275.06200559415305L1092.9216867469877,275.08332904471683L1095.58734939759,275.9356623042654L1098.2530120481929,277.92051268008635L1100.918674698795,281.6984661017774L1103.5843373493976,286.98878068807545L1106.2499999999998,289.84724916007906L1108.9156626506021,288.86983321081027L1111.5813253012043,285.61716576945815L1114.2469879518071,283.7058382312431L1116.9126506024095,283.81513912272527L1119.5783132530119,284.6729954835195L1122.2439759036147,285.4515546351438L1124.9096385542168,285.93240677340316L1127.5753012048192,286.22750247007605L1130.2409638554216,286.55237168461497L1132.906626506024,286.9228703189575L1135.572289156626,288.03933621685013L1138.237951807229,289.54097928815753L1140.903614457831,290.3349091950207L1143.5692771084337,290.32306595748366L1146.2349397590365,290.21582660416925L1148.9006024096386,290.07432869216973L1151.566265060241,290.4008824755904L1154.2319277108431,291.1146944824816L1156.8975903614455,291.9225983653151L1159.5632530120479,292.8444071500801L1162.2289156626507,293.52157208107246L1164.8945783132529,293.80185452308035L1167.5602409638552,293.9943957062439L1170.2259036144574,294.22734993150914L1172.8915662650602,294.86765564681684L1175.5572289156628,295.6350359854225L1178.222891566265,296.23922505405625L1180.8885542168673,296.78355609254254L1183.5542168674694,297.3775719926639L1186.2198795180718,297.77797317046924L1188.8855421686746,297.70194496028796L1191.551204819277,297.17392427611844L1194.2168674698792,297.12540348187616L1196.882530120482,297.5044177086649L1199.5481927710844,298.0036358665772L1202.2138554216867,298.43387951280204L1204.879518072289,299.1323690238905L1207.5451807228912,299.7090316757783L1210.2108433734934,300.18075707038076L1212.8765060240964,300.60067263835276L1215.5421686746986,300.8193402961805L1218.207831325301,301.3228088970055L1220.8734939759038,302.06902557552075L1223.5391566265062,302.83300484452803L1226.2048192771083,303.39685014188285L1228.8704819277107,303.822781023358L1231.536144578313,304.385027156989L1234.2018072289152,305.26762554784335L1236.867469879518,305.7784310419532L1239.5331325301204,305.89143156584475L1242.1987951807225,306.04985598251847L1244.8644578313251,306.56065886293595L1247.530120481928,307.4206933135561L1250.19578313253,308.0119184498277L1252.8614457831325,308.6372223877878L1255.5271084337346,309.385243286461L1258.192771084337,310.0877432004311L1260.8584337349394,310.213057590295L1263.5240963855422,310.4974633012911L1266.1897590361443,310.9186176121771L1268.8554216867467,311.82118510633325L1271.5210843373495,312.97456202501047L1274.186746987952,313.9509520626137L1276.8524096385543,314.1084650228041L1279.5180722891564,314.06479178912065L1282.1837349397588,313.7884683062711L1284.849397590361,313.8321419080803L1287.5150602409637,314.2018548260146L1290.1807228915661,314.7603730582516L1292.8463855421685,315.20653985745383L1295.5120481927713,315.5655985475993L1298.1777108433735,315.90847944364475L1300.8433734939758,316.3852476618699L1303.5090361445782,317.1774830346893L1306.1746987951803,317.95571563858834L1308.8403614457827,318.7197086834721L1311.5060240963849,319.3886232620927L1314.1716867469877,320.04367593999285L1316.8373493975903,320.77200710471595L1319.503012048193,321.3357942535519L1322.1686746987953,322.06885721435117L1324.8343373493976,322.8751136979529L1327.4999999999998,323.60859678463896L1330.1656626506021,324.173935243928L1332.8313253012045,324.64156824424316L1335.4969879518067,324.9545612586581L1338.1626506024095,325.43574966868255L1340.8283132530119,326.10744640007965L1343.4939759036147,327.1454740002531L1346.159638554217,327.9078457846691L1348.8253012048194,328.47422223934916L1351.4909638554216,328.72094436076117L1354.156626506024,329.2222727586417L1356.822289156626,329.71166142036L1359.4879518072285,330.1560829332579L1362.1536144578313,330.5412912132926L1364.8192771084337,330.9893468825394L1367.4849397590358,331.44352734770723L1370.1506024096386,331.8231037017962L1372.816265060241,331.92524192222066L1375.4819277108434,332.07780273182465L1378.1475903614457,332.34447114010874L1380.8132530120479,332.81204335428447L1383.47891566265,333.21157101034436L1386.1445783132524,333.5039488099647L1388.8102409638554,333.8727389540053L1391.4759036144576,334.29789679609354L1394.1415662650604,334.6420601984475L1396.8072289156628,335.02366056274536L1399.472891566265,335.2677036685391L1402.1385542168673,335.48723824639177L1404.8042168674697,335.6592215257936L1407.4698795180718,335.9030626226203L1410.1355421686742,336.23989833421786L1412.801204819277,336.62565804320695L1415.4668674698792,337.05408676663325L1418.132530120482,337.7008024783244L1420.7981927710846,338.2387528275262L1423.4638554216867,338.771361408057L1426.129518072289,339.28648729816183L1428.7951807228912,339.68725226328627L1431.4608433734936,339.97185718610774L1434.126506024096,340.29150583183406L1436.7921686746988,340.53757143668076L1439.457831325301,340.8538736592253L1442.1234939759033,341.3021705354616L1444.7891566265062,341.6372354784817L1447.4548192771085,342.05951631591716L1450.120481927711,342.5294193123156L1452.786144578313,343.0788524837666L1455.4518072289152,343.67913698197054L1458.1174698795176,344.22753289612245L1460.78313253012,344.75720364966196L1463.4487951807228,345.20708935756124L1466.1144578313251,345.72870032021444L1468.780120481928,346.13105094805337L1471.44578313253,346.5918694131531L1474.1114457831325,347.0942474140409L1476.7771084337348,347.5739045230836L1479.442771084337,347.8755847801105L1482.1084337349394,348.10780905632686L1484.7740963855415,348.28844097738545L1487.4397590361443,348.5097085283519L1490.105421686747,348.82819868808434L1492.7710843373497,349.18432173545085L1495.436746987952,349.41987768343944L1498.1024096385543,349.8306849980939L1500.7680722891564,350.0552785670356L1503.4337349397588,350.34891561601097L1506.0993975903611,350.5987139048178L1508.7650602409633,351.0328452852445L1511.4307228915661,351.57274589742406L1514.0963855421685,352.3184078669851L1516.7620481927706,353.3896398194248L1519.4277108433737,354.2336147679173L1522.093373493976,354.57904842014193L1524.7590361445782,354.7261400622869L1527.4246987951803,354.432927955816L1530.0903614457827,354.08787040410095L1532.756024096385,353.84551294855805L1535.421686746988,353.68589086259306L1538.0873493975903,353.74848006900675L1540.7530120481924,353.8443515488494L1543.4186746987953,354.0136719561712L1546.0843373493976,354.1029893524782L1548.75,354.2469919652238L1551.4156626506021,354.37616636451753L1554.0813253012045,354.58168856107477L1556.7469879518067,354.85578377764784L1559.412650602409,355.1922693958948L1562.078313253012,355.4091226800448L1564.7439759036142,355.7318626979836L1567.409638554217,356.0482904234689L1570.0753012048194,356.2057498716834L1572.7409638554216,356.4487048274164L1575.406626506024,356.66666763929896L1578.0722891566263,357.0042053874292L1580.7379518072285,357.3582891271242L1583.4036144578308,357.567609149628L1586.0692771084337,357.77581632728015L1588.7349397590358,358.0279965509067L1591.4006024096389,358.30841630716793L1594.0662650602412,358.6585049853123L1596.7319277108434,358.9092539326128L1599.3975903614457,359.12241646139734L1602.0632530120479,359.3140006438752L1604.7289156626503,359.5472062698368L1607.3945783132526,359.76495918105803L1610.0602409638554,359.97885136101644L1612.7259036144576,360.14982818082046L1615.39156626506,360.39717383719096L1618.0572289156628,360.6615299621813L1620.7228915662652,360.92326550690365L1623.3885542168673,361.0841728914104L1626.0542168674697,361.30829358297564L1628.7198795180718,361.4397236567298L1631.3855421686742,361.6897170042908L1634.0512048192766,361.9796202526582L1636.7168674698794,362.2451429958455L1639.3825301204818,362.43478188841675L1642.0481927710846,362.6131048264284L1644.7138554216867,362.92147784269565L1647.379518072289,363.1996015613562L1650.0451807228915,363.4418072153665L1652.7108433734936,363.77326182068964L1655.376506024096,364.10397504328705L1658.0421686746981,364.43742829680036L1660.707831325301,364.7799206229991L1663.3734939759036,365.1797696021606L1666.0391566265064,365.5664055005792L1668.7048192771085,365.8847682955752L1671.370481927711,366.20683381738377L1674.036144578313,366.5688095685509L1676.7018072289154,366.9357893520971L1679.3674698795178,367.2615904031705L1682.03313253012,367.57287518711894L1684.6987951807228,367.97174541488897L1687.3644578313251,368.36051757362594L1690.0301204819275,368.73019579203367L1692.6957831325303,369.0240994403876L1695.3614457831327,369.30184822856467L1698.0271084337348,369.6562476627196L1700.692771084337,369.890062418575L1703.3584337349394,370.2065685397984L1706.0240963855417,370.54881041997345L1708.689759036144,370.8103841102644L1711.355421686747,371.0282891432876L1714.021084337349,371.25554354213216L1716.686746987952,371.4262204263231L1719.3524096385543,371.6344265845738L1722.0180722891566,371.7797929597026L1724.6837349397588,371.8972357371655L1727.3493975903611,371.9591195092464L1730.0150602409633,372.0799257703689L1732.680722891566,372.1478600153299L1735.3463855421687,372.1805799942683L1738.0120481927709,372.2587717526976L1740.6777108433737,372.3854452549038L1743.343373493976,372.4598022349307L1746.0090361445782,372.52032965775936L1748.6746987951806,372.5764128080008L1751.340361445783,372.6709633987576L1754.006024096385,372.7552122452854L1756.6716867469875,372.76819279300014L1759.3373493975903,372.82635755821707L1762.0030120481924,372.8603387792976L1764.668674698795,372.92249943097346L1767.3343373493979,372.9688789820095L1770,373" class="rv-xy-plot__series rv-xy-plot__series--line " transform="translate(100,20)" style="opacity: 1; stroke-dasharray: 10px, 2px, 2px, 2px; stroke-width: 1px; stroke: rgb(18, 147, 154); fill: none;"/><path d="M0,124.30695217705266L2.6656626506022882,124.25261332914619L5.3313253012045765,124.20687477603056L7.996987951807428,124.0907725220969L10.662650602409718,124.04283129971051L13.328313253012006,124.07271379658263L15.993975903614295,123.96948878938949L18.659638554217146,123.92460874401343L21.325301204819436,123.88632312368591L23.99096385542172,123.82141332676247L26.65662650602401,123.70346268219078L29.3222891566263,123.60634156107326L31.987951807229148,123.49091847754565L34.65361445783144,123.3695853951366L37.319277108433724,123.19649124741116L39.98493975903602,123.04164171731793L42.6506024096383,122.87725483035544L45.31626506024115,122.76523393215382L47.98192771084344,122.53278238005075L50.64759036144573,122.29365471289643L53.31325301204802,122.07475222677698L55.97891566265087,121.6551886130309L58.64457831325316,121.21695313222702L61.31024096385545,120.61063106210744L63.97590361445773,120.00624255555772L66.64156626506002,119.23304478235264L69.30722891566288,118.37065767517512L71.97289156626518,117.32046203772276L74.63855421686745,116.16520372501998L77.30421686746973,114.92374491651151L79.96987951807203,113.74755669401543L82.63554216867487,112.68194669284935L85.30120481927717,111.65473552246812L87.96686746987946,110.88809982940882L90.63253012048175,110.22111983560012L93.2981927710846,109.68649755268626L95.96385542168689,109.52295005669674L98.62951807228917,109.51130437748725L101.29518072289146,109.28614507576106L103.96084337349374,109.06024155612789L106.6265060240966,109.03606968924475L109.29216867469889,109.11104083757903L111.95783132530117,109.20530099941493L114.62349397590347,109.37745765711583L117.28915662650576,109.7824761411498L119.9548192771086,110.24957647464942L122.6204819277109,110.2666581470587L125.28614457831318,109.76678421926277L127.95180722891546,108.89465603293058L130.61746987951832,107.9454435249479L133.2831325301206,106.92427300922822L135.94879518072293,105.76735679865601L138.61445783132518,105.1861823376903L141.28012048192747,105.26720171609884L143.94578313253035,105.01559090559323L146.6114457831326,104.43119774050308L149.2771084337349,103.96718617656745L151.9427710843372,103.37821958521624L154.60843373493947,102.30416431864057L157.27409638554232,101.33422152192298L159.93975903614464,100.69720505527738L162.60542168674692,100.32551465545919L165.27108433734918,100.23638697026735L167.93674698795206,100.4928735787189L170.60240963855435,100.75778640729112L173.2680722891566,100.70648196690911L175.93373493975892,100.22769710160213L178.5993975903612,99.71752767897084L181.26506024096403,98.9859648548603L183.93072289156635,98.28612363781156L186.59638554216863,97.47825303599376L189.26204819277092,96.74083997268411L191.9277108433732,95.78522673097359L194.59337349397606,94.91021959137669L197.25903614457835,94.28545017435857L199.92469879518063,93.77608872194628L202.59036144578292,93.41432180111514L205.25602409638577,93.07117808296732L207.92168674698806,92.76051183329685L210.58734939759034,92.47956584536377L213.25301204819266,92.63121736797183L215.91867469879492,92.82032392135943L218.58433734939777,92.87073400224182L221.25000000000006,92.68185233499173L223.91566265060234,91.65364730902246L226.58132530120463,90.5184237499281L229.24698795180748,89.77118521526523L231.91265060240977,89.20834100440715L234.57831325301206,88.98716317303149L237.24397590361437,88.79087655096663L239.90963855421666,88.21759856867811L242.57530120481948,87.39372907202431L245.2409638554218,86.31974416224216L247.90662650602408,85.45569467649221L250.57228915662637,84.97014148065114L253.23795180722868,84.88141451253307L255.9036144578315,85.23200930366738L258.5692771084338,85.88574205957838L261.2349397590361,86.47697055806452L263.9006024096384,86.82930329630403L266.56626506024065,86.13570721423417L269.23192771084354,85.16510821815297L271.89759036144585,84.80305055227308L274.56325301204805,84.74370938285153L277.22891566265037,84.43683785981614L279.89457831325325,83.81573270691916L282.5602409638555,83.09503337961655L285.22590361445776,82.47600383771862L287.8915662650601,82.20695128187265L290.5572289156624,82.0695428320393L293.2228915662652,82.40266567404154L295.88855421686753,82.84883565446319L298.5542168674698,82.73421574938538L301.2198795180721,82.49093246419875L303.88554216867493,82.23397852878577L306.55120481927725,81.85781235663279L309.2168674698795,80.87738192126756L311.8825301204818,79.95594579380992L314.54819277108413,79.3889079694411L317.21385542168696,78.80900588948703L319.8795180722893,78.28708587918982L322.54518072289153,77.91299551068829L325.21084337349384,77.88865379828565L327.8765060240961,77.84188273853295L330.542168674699,77.82359192756996L333.20783132530124,77.91566291623616L335.8734939759035,77.84020896984526L338.5391566265058,77.3030873807603L341.20481927710813,76.2241417142269L343.87048192771096,75.69863697888366L346.5361445783132,76.34992631531708L349.2018072289155,76.66914493748413L351.86746987951784,75.34450939542023L354.53313253012067,74.19310517636745L357.198795180723,73.72225618041261L359.86445783132524,72.85641900150716L362.53012048192755,72.14531268830211L365.19578313252987,71.85323134888176L367.8614457831327,72.14178761802259L370.52710843373495,72.43462561891823L373.19277108433727,71.54460325158169L375.8584337349396,69.93456408710892L378.5240963855424,67.74761164464974L381.1897590361447,65.73755364322506L383.855421686747,65.5227347657667L386.5210843373493,66.16691041517248L389.18674698795155,65.75178990076643L391.85240963855443,64.31808085354464L394.5180722891567,62.66769234805133L397.18373493975895,61.462027971944394L399.84939759036126,61.199410173842296L402.51506024096415,61.20875720636036L405.1807228915664,60.807664594655535L407.84638554216866,60.85791826691246L410.512048192771,59.823667952806545L413.1777108433733,57.50765201934507L415.84337349397555,55.4102212798777L418.50903614457843,55.00299015343478L421.1746987951807,55.53042377899237L423.840361445783,55.17091616142051L426.5060240963853,53.25987356352567L429.17168674698814,52.4306595544374L431.8373493975904,52.58962927506769L434.5030120481927,52.552801934158595L437.16867469879503,51.515571327923624L439.8343373493973,49.95486745723463L442.5000000000001,49.467579877744754L445.1656626506024,50.15994762197295L447.8313253012047,50.095552931810005L450.49698795180706,49.69375542507646L453.1626506024099,49.60771571859192L455.82831325301214,50.058994898150615L458.49397590361446,49.41924876332695L461.1596385542167,49.51177581553583L463.825301204819,52.47078527751347L466.4909638554219,59.645038972897055L469.1566265060241,61.264669470973786L471.8222891566265,55.0263429508027L474.48795180722874,52.57781301868886L477.15361445783157,49.72967828241633L479.8192771084339,46.78840215230167L482.48493975903614,47.34116125399129L485.1506024096384,49.202336069827595L487.81626506024077,46.63725163892775L490.48192771084297,41.760257872369436L493.14759036144585,41.71091634192294L495.81325301204816,42.38023979098767L498.4789156626504,42.918262986126194L501.14457831325274,43.14250430112628L503.8102409638556,46.717419322375974L506.4759036144578,45.79506865231485L509.1415662650602,40.760730811198016L511.80722891566245,40.14575817749886L514.4728915662648,42.04522853112195L517.1385542168676,40.552784105779324L519.8042168674699,36.713162829682915L522.4698795180722,35.578933095806235L525.1355421686744,36.91815087465102L527.8012048192772,38.60424756131238L530.4668674698796,35.33357533712899L533.1325301204819,34.498866623396566L535.7981927710842,33.82679430993352L538.4638554216865,32.245149597652414L541.1295180722893,34.571759428625626L543.7951807228917,37.35371994783435L546.4608433734938,33.724193159808806L549.1265060240961,31.081775930400227L551.792168674699,30.515788734268654L554.4578313253013,32.97686897273036L557.1234939759036,34.39101715821312L559.7891566265059,33.55945989357713L562.4548192771082,34.27973853850966L565.1204819277106,33.67887696096744L567.7861445783134,31.470524743833664L570.4518072289155,29.353081682496224L573.1174698795179,26.99716336351412L575.7831325301202,28.214793853829065L578.448795180723,31.920027895526005L581.1144578313254,28.358498933288388L583.7801204819276,25.71460956560321L586.44578313253,24.798328168293835L589.1114457831322,21.577472141944497L591.7771084337351,20.594474087018966L594.4427710843373,22.590758667344005L597.1084337349396,22.853378555786435L599.7740963855418,22.86560558520563L602.4397590361448,24.64538613448434L605.105421686747,24.13086517856084L607.7710843373493,19.6663064182805L610.4367469879517,17.4707722428476L613.1024096385539,19.454430901355977L615.7680722891569,21.045223771164842L618.433734939759,19.508124650421905L621.0993975903613,19.949195382757125L623.7650602409636,17.254921910978055L626.4307228915665,15.407094531020903L629.0963855421687,18.015969504374254L631.7620481927711,21.033892484784133L634.4277108433733,20.540603795920504L637.0933734939757,20.189563045679847L639.7590361445779,22.36220686813266L642.4246987951808,22.400809853443775L645.0903614457831,21.09389323296307L647.7560240963853,20.262361636503613L650.4216867469881,18.931524700154114L653.0873493975905,19.67932628856687L655.7530120481928,28.774963758623358L658.4186746987951,36.91079656165897L661.0843373493974,32.64230342839443L663.7499999999997,22.944230504851987L666.4156626506025,29.2776401664824L669.0813253012047,28.913625306431584L671.746987951807,22.628205988344575L674.4126506024094,21.15800314478105L677.0783132530122,18.040365380948856L679.7439759036145,18.650376101368522L682.4096385542168,19.49751541802135L685.0753012048191,16.448973270022293L687.7409638554213,15.688235696121978L690.4066265060243,14.577281259340907L693.0722891566264,18.366024026284094L695.7379518072288,19.28636049361802L698.403614457831,15.906158505627502L701.0692771084339,11.58422073026361L703.7349397590363,10.147800444155791L706.4006024096385,10.990822738913266L709.0662650602409,11.860552948122063L711.7319277108431,11.067728413466L714.3975903614453,11.834722857578356L717.0632530120482,20.61670565823374L719.7289156626505,23.79717095457886L722.3945783132527,19.26254103559603L725.0602409638557,12.913135614946782L727.7259036144579,11.319493132103446L730.3915662650603,8.75044817076207L733.0572289156626,4.622404545965992L735.7228915662648,6.395108006658745L738.3885542168671,9.818516443129568L741.0542168674699,7.247446378245968L743.7198795180722,3.65388336350253L746.3855421686745,2.559030553777575L749.0512048192768,4.276299277580961L751.7168674698796,5.962482916755164L754.382530120482,10.503830958837739L757.0481927710842,12.598671275199536L759.7138554216866,6.795274308009198L762.3795180722888,5.539252937810602L765.0451807228917,6.732631429791695L767.710843373494,5.645751152282514L770.3765060240962,4.212152269738226L773.0421686746986,1.0042371089958806L775.7078313253014,0L778.3734939759037,3.6651708551980278L781.039156626506,7.794988865406253L783.7048192771083,7.905274136001253L786.3704819277106,3.770249682576207L789.0361445783128,3.447370476931269L791.7018072289156,3.705927310703146L794.3674698795179,4.8606157458330586L797.0331325301203,7.594629584885354L799.6987951807231,8.746600667175187L802.3644578313254,9.973200591227055L805.0301204819277,11.832321421607503L807.69578313253,9.829915948107157L810.3614457831322,7.0511962515475375L813.0271084337345,6.396642737344791L815.6927710843373,7.326684623498579L818.3584337349397,8.03390123302944L821.024096385542,9.044551585890872L823.6897590361448,7.590774502817851L826.3554216867471,5.274900014286516L829.0210843373494,7.454788816404289L831.6867469879518,7.540345251790598L834.352409638554,7.635642427655853L837.0180722891562,8.050384850605951L839.6837349397591,8.645226639463942L842.3493975903614,8.705495310739934L845.0150602409637,9.113775456710982L847.680722891566,12.30367999246755L850.3463855421688,13.059129649575539L853.0120481927712,11.461938165215713L855.6777108433735,10.94489640243404L858.3433734939757,11.326254325907883L861.009036144578,12.180864397386642L863.6746987951802,13.24711589466989L866.3403614457831,14.386784844993429L869.0060240963854,15.213310782571739L871.6716867469877,15.763480912798002L874.3373493975905,14.709124433610043L877.0030120481929,15.471126311844557L879.6686746987951,18.578673317619746L882.3343373493975,19.086954917524054L884.9999999999997,18.375281902443703L887.665662650602,17.97866463451396L890.3313253012049,18.180721803930737L892.9969879518071,17.831292930020766L895.6626506024094,18.519524440487885L898.3283132530122,19.827680905805607L900.9939759036147,20.930776580839506L903.6596385542169,22.59109972842424L906.3253012048192,23.56127550084102L908.9909638554213,23.382240139630653L911.6566265060236,22.237227565282694L914.3222891566267,23.55852652845914L916.9879518072289,26.907894758584803L919.6536144578312,26.689500241422195L922.3192771084334,25.401954434730328L924.9849397590363,25.64756998691314L927.6506024096385,23.74913395233267L930.316265060241,21.43925010306714L932.9819277108431,23.400281665086084L935.6475903614454,25.49786730202294L938.3132530120477,24.533982296830743L940.9789156626505,24.151549894256846L943.644578313253,23.198877215631683L946.3102409638552,23.974869181470467L948.975903614458,24.92989532806331L951.6415662650603,24.7863219148889L954.3072289156626,24.350928143154533L956.9728915662649,25.447611265171986L959.6385542168672,27.569358422513005L962.3042168674694,28.303670590198806L964.9698795180723,27.031810001518522L967.6355421686745,25.58366794216886L970.3012048192768,24.91389624364257L972.9668674698798,25.88089463619002L975.6325301204821,27.92779804613218L978.2981927710844,29.14349975421618L980.9638554216866,28.512645057114582L983.6295180722888,27.537537469373945L986.2951807228912,28.120246497209735L988.9608433734941,29.786746782665375L991.6265060240963,31.41734238514607L994.2921686746986,31.349765531934054L996.9578313253008,28.845562825503464L999.6234939759037,27.035454869097578L1002.2891566265062,26.435788497472345L1004.9548192771083,26.622289961627132L1007.6204819277106,26.53942972044399L1010.2861445783128,26.469698324565172L1012.9518072289156,26.647625480227703L1015.6174698795181,27.218945529026314L1018.2831325301204,28.15520126867932L1020.9487951807226,28.45535582575667L1023.6144578313255,27.952574895973328L1026.2801204819277,27.401754179686407L1028.94578313253,26.171427012572053L1031.6114457831325,26.179870613133176L1034.2771084337346,26.70773511016614L1036.942771084337,27.6881174554332L1039.6084337349398,27.8310381290118L1042.274096385542,26.81107943732252L1044.9397590361443,25.675339613865845L1047.6054216867471,24.861518115630645L1050.2710843373495,24.44866012803783L1052.9367469879517,24.39161362770966L1055.602409638554,24.030107908614298L1058.2680722891564,23.58503924181423L1060.9337349397588,22.886959274839853L1063.5993975903616,22.253514658964832L1066.2650602409637,22.297193980833583L1068.930722891566,22.473273323508693L1071.5963855421685,22.628430186700484L1074.2620481927713,22.773272444425857L1076.9277108433735,23.31597078048469L1079.5933734939758,24.445229854415686L1082.259036144578,25.92931569782297L1084.9246987951803,26.915951087249084L1087.5903614457834,26.888901477314448L1090.2560240963855,26.39533892748642L1092.9216867469877,26.416662378050205L1095.58734939759,27.268995637598778L1098.2530120481929,29.25384601341966L1100.918674698795,33.03179943511077L1103.5843373493976,38.322114021408765L1106.2499999999998,41.18058249341237L1108.9156626506021,40.203166544143585L1111.5813253012043,36.950499102791525L1114.2469879518071,35.03917156457641L1116.9126506024095,35.148472456058585L1119.5783132530119,36.006328816852886L1122.2439759036147,36.784887968477165L1124.9096385542168,37.26574010673653L1127.5753012048192,37.56083580340942L1130.2409638554216,37.885705017948396L1132.906626506024,38.25620365229082L1135.572289156626,39.3726695501835L1138.237951807229,40.874312621490844L1140.903614457831,41.66824252835403L1143.5692771084337,41.65639929081698L1146.2349397590365,41.54915993750262L1148.9006024096386,41.4076620255031L1151.566265060241,41.73421580892369L1154.2319277108431,42.44802781581495L1156.8975903614455,43.255931698648396L1159.5632530120479,44.17774048341346L1162.2289156626507,44.85490541440578L1164.8945783132529,45.135187856413665L1167.5602409638552,45.32772903957721L1170.2259036144574,45.56068326484251L1172.8915662650602,46.20098898015016L1175.5572289156628,46.96836931875583L1178.222891566265,47.57255838738956L1180.8885542168673,48.116889425875854L1183.5542168674694,48.71090532599726L1186.2198795180718,49.11130650380261L1188.8855421686746,49.03527829362122L1191.551204819277,48.507257609451756L1194.2168674698792,48.45873681520942L1196.882530120482,48.83775104199822L1199.5481927710844,49.33696919991053L1202.2138554216867,49.76721284613535L1204.879518072289,50.46570235722379L1207.5451807228912,51.04236500911168L1210.2108433734934,51.51409040371408L1212.8765060240964,51.93400597168613L1215.5421686746986,52.1526736295138L1218.207831325301,52.65614223033879L1220.8734939759038,53.40235890885401L1223.5391566265062,54.166338177861405L1226.2048192771083,54.730183475216165L1228.8704819277107,55.15611435669132L1231.536144578313,55.71836049032231L1234.2018072289152,56.60095888117672L1236.867469879518,57.111764375286555L1239.5331325301204,57.224764899178126L1242.1987951807225,57.38318931585178L1244.8644578313251,57.89399219626932L1247.530120481928,58.75402664688943L1250.19578313253,59.345251783161075L1252.8614457831325,59.97055572112117L1255.5271084337346,60.71857661979436L1258.192771084337,61.42107653376439L1260.8584337349394,61.546390923628394L1263.5240963855422,61.83079663462439L1266.1897590361443,62.25195094551043L1268.8554216867467,63.15451843966656L1271.5210843373495,64.30789535834379L1274.186746987952,65.28428539594705L1276.8524096385543,65.44179835613744L1279.5180722891564,65.39812512245396L1282.1837349397588,65.12180163960443L1284.849397590361,65.16547524141356L1287.5150602409637,65.53518815934797L1290.1807228915661,66.09370639158499L1292.8463855421685,66.5398731907872L1295.5120481927713,66.8989318809326L1298.1777108433735,67.24181277697807L1300.8433734939758,67.71858099520324L1303.5090361445782,68.51081636802263L1306.1746987951803,69.28904897192166L1308.8403614457827,70.05304201680542L1311.5060240963849,70.72195659542598L1314.1716867469877,71.37700927332617L1316.8373493975903,72.10534043804927L1319.503012048193,72.66912758688522L1322.1686746987953,73.40219054768448L1324.8343373493976,74.20844703128625L1327.4999999999998,74.94193011797228L1330.1656626506021,75.5072685772613L1332.8313253012045,75.97490157757647L1335.4969879518067,76.2878945919914L1338.1626506024095,76.76908300201586L1340.8283132530119,77.44077973341297L1343.4939759036147,78.47880733358642L1346.159638554217,79.24117911800249L1348.8253012048194,79.80755557268247L1351.4909638554216,80.05427769409454L1354.156626506024,80.55560609197505L1356.822289156626,81.04499475369329L1359.4879518072285,81.4894162665912L1362.1536144578313,81.87462454662591L1364.8192771084337,82.32268021587271L1367.4849397590358,82.77686068104049L1370.1506024096386,83.1564370351295L1372.816265060241,83.25857525555404L1375.4819277108434,83.41113606515802L1378.1475903614457,83.67780447344205L1380.8132530120479,84.14537668761784L1383.47891566265,84.54490434367773L1386.1445783132524,84.83728214329801L1388.8102409638554,85.2060722873386L1391.4759036144576,85.63123012942691L1394.1415662650604,85.97539353178075L1396.8072289156628,86.35699389607868L1399.472891566265,86.60103700187244L1402.1385542168673,86.82057157972508L1404.8042168674697,86.99255485912698L1407.4698795180718,87.2363959559537L1410.1355421686742,87.57323166755117L1412.801204819277,87.95899137654027L1415.4668674698792,88.38742009996656L1418.132530120482,89.03413581165779L1420.7981927710846,89.5720861608595L1423.4638554216867,90.10469474139023L1426.129518072289,90.61982063149514L1428.7951807228912,91.02058559661964L1431.4608433734936,91.30519051944106L1434.126506024096,91.62483916516737L1436.7921686746988,91.87090477001408L1439.457831325301,92.18720699255863L1442.1234939759033,92.63550386879496L1444.7891566265062,92.9705688118151L1447.4548192771085,93.39284964925054L1450.120481927711,93.86275264564892L1452.786144578313,94.4121858170999L1455.4518072289152,95.01247031530386L1458.1174698795176,95.56086622945577L1460.78313253012,96.09053698299527L1463.4487951807228,96.54042269089462L1466.1144578313251,97.06203365354776L1468.780120481928,97.46438428138669L1471.44578313253,97.92520274648649L1474.1114457831325,98.42758074737424L1476.7771084337348,98.90723785641694L1479.442771084337,99.20891811344381L1482.1084337349394,99.44114238966017L1484.7740963855415,99.62177431071882L1487.4397590361443,99.84304186168526L1490.105421686747,100.16153202141771L1492.7710843373497,100.51765506878417L1495.436746987952,100.75321101677275L1498.1024096385543,101.16401833142726L1500.7680722891564,101.38861190036897L1503.4337349397588,101.68224894934428L1506.0993975903611,101.93204723815114L1508.7650602409633,102.3661786185778L1511.4307228915661,102.90607923075743L1514.0963855421685,103.65174120031844L1516.7620481927706,104.72297315275819L1519.4277108433737,105.5669481012506L1522.093373493976,105.91238175347524L1524.7590361445782,106.05947339562027L1527.4246987951803,105.76626128914938L1530.0903614457827,105.42120373743433L1532.756024096385,105.17884628189137L1535.421686746988,105.01922419592643L1538.0873493975903,105.08181340234006L1540.7530120481924,105.17768488218275L1543.4186746987953,105.34700528950458L1546.0843373493976,105.43632268581155L1548.75,105.58032529855717L1551.4156626506021,105.70949969785084L1554.0813253012045,105.91502189440808L1556.7469879518067,106.18911711098121L1559.412650602409,106.52560272922813L1562.078313253012,106.7424560133781L1564.7439759036142,107.06519603131699L1567.409638554217,107.38162375680224L1570.0753012048194,107.53908320501677L1572.7409638554216,107.78203816074972L1575.406626506024,108.00000097263234L1578.0722891566263,108.33753872076255L1580.7379518072285,108.69162246045755L1583.4036144578308,108.90094248296134L1586.0692771084337,109.10914966061353L1588.7349397590358,109.36132988424004L1591.4006024096389,109.6417496405013L1594.0662650602412,109.99183831864559L1596.7319277108434,110.2425872659461L1599.3975903614457,110.45574979473065L1602.0632530120479,110.64733397720858L1604.7289156626503,110.88053960317012L1607.3945783132526,111.0982925143914L1610.0602409638554,111.31218469434975L1612.7259036144576,111.48316151415384L1615.39156626506,111.73050717052428L1618.0572289156628,111.99486329551468L1620.7228915662652,112.25659884023702L1623.3885542168673,112.4175062247437L1626.0542168674697,112.64162691630901L1628.7198795180718,112.77305699006314L1631.3855421686742,113.02305033762417L1634.0512048192766,113.31295358599152L1636.7168674698794,113.57847632917884L1639.3825301204818,113.76811522175007L1642.0481927710846,113.94643815976173L1644.7138554216867,114.25481117602902L1647.379518072289,114.53293489468956L1650.0451807228915,114.77514054869988L1652.7108433734936,115.10659515402295L1655.376506024096,115.43730837662042L1658.0421686746981,115.77076163013368L1660.707831325301,116.11325395633247L1663.3734939759036,116.51310293549392L1666.0391566265064,116.89973883391252L1668.7048192771085,117.21810162890858L1671.370481927711,117.54016715071714L1674.036144578313,117.90214290188419L1676.7018072289154,118.26912268543046L1679.3674698795178,118.59492373650383L1682.03313253012,118.90620852045222L1684.6987951807228,119.30507874822231L1687.3644578313251,119.69385090695928L1690.0301204819275,120.06352912536701L1692.6957831325303,120.35743277372092L1695.3614457831327,120.63518156189804L1698.0271084337348,120.98958099605295L1700.692771084337,121.22339575190838L1703.3584337349394,121.53990187313178L1706.0240963855417,121.88214375330679L1708.689759036144,122.14371744359775L1711.355421686747,122.36162247662094L1714.021084337349,122.58887687546547L1716.686746987952,122.75955375965646L1719.3524096385543,122.96775991790719L1722.0180722891566,123.11312629303592L1724.6837349397588,123.23056907049883L1727.3493975903611,123.29245284257973L1730.0150602409633,123.41325910370227L1732.680722891566,123.48119334866325L1735.3463855421687,123.51391332760164L1738.0120481927709,123.59210508603095L1740.6777108433737,123.71877858823714L1743.343373493976,123.79313556826403L1746.0090361445782,123.85366299109268L1748.6746987951806,123.90974614133413L1751.340361445783,124.00429673209092L1754.006024096385,124.08854557861872L1756.6716867469875,124.10152612633345L1759.3373493975903,124.15969089155047L1762.0030120481924,124.1936721126309L1764.668674698795,124.25583276430683L1767.3343373493979,124.3022123153429L1770,124.33333333333334" class="rv-xy-plot__series rv-xy-plot__series--line " transform="translate(100,20)" style="opacity: 1; stroke-dasharray: 5px, 5px; stroke-width: 1px; stroke: rgb(121, 199, 227); fill: none;"/><path d="M0,372.9472376874386L2.6656626506022882,372.83855999162574L5.3313253012045765,372.7470828853945L7.996987951807428,372.51487837752717L10.662650602409718,372.41899593275434L13.328313253012006,372.47876092649864L15.993975903614295,372.2723109121123L18.659638554217146,372.18255082136017L21.325301204819436,372.10597958070514L23.99096385542172,371.97615998685825L26.65662650602401,371.74025869771486L29.3222891566263,371.54601645547984L31.987951807229148,371.31517028842467L34.65361445783144,371.07250412360656L37.319277108433724,370.72631582815563L39.98493975903602,370.4166167679693L42.6506024096383,370.0878429940443L45.31626506024115,369.86380119764095L47.98192771084344,369.39889809343487L50.64759036144573,368.9206427591262L53.31325301204802,368.4828377868872L55.97891566265087,367.64371055939506L58.64457831325316,366.7672395977874L61.31024096385545,365.55459545754826L63.97590361445773,364.3458184444488L66.64156626506002,362.79942289803864L69.30722891566288,361.0746486836836L71.97289156626518,358.97425740877884L74.63855421686745,356.66374078337327L77.30421686746973,354.18082316635645L79.96987951807203,351.8284467213642L82.63554216867487,349.69722671903196L85.30120481927717,347.6428043782696L87.96686746987946,346.10953299215095L90.63253012048175,344.77557300453356L93.2981927710846,343.7063284387059L95.96385542168689,343.37923344672686L98.62951807228917,343.3559420883078L101.29518072289146,342.9056234848554L103.96084337349374,342.45381644558904L106.6265060240966,342.4054727118229L109.29216867469889,342.5554150084913L111.95783132530117,342.74393533216323L114.62349397590347,343.088248647565L117.28915662650576,343.8982856156329L119.9548192771086,344.83248628263215L122.6204819277109,344.8666496274508L125.28614457831318,343.8669017718588L127.95180722891546,342.1226453991946L130.61746987951832,340.22422038322924L133.2831325301206,338.1818793517897L135.94879518072293,335.86804693064545L138.61445783132518,334.7056980087139L141.28012048192747,334.8677367655311L143.94578313253035,334.36451514451977L146.6114457831326,333.19572881433953L149.2771084337349,332.2677056864682L151.9427710843372,331.0897725037658L154.60843373493947,328.9416619706145L157.27409638554232,327.0017763771794L159.93975903614464,325.727743443888L162.60542168674692,324.9843626442517L165.27108433734918,324.806107273868L167.93674698795206,325.31908049077106L170.60240963855435,325.84890614791556L173.2680722891566,325.74629726715153L175.93373493975892,324.78872753653764L178.5993975903612,323.768388691275L181.26506024096403,322.30526304305397L183.93072289156635,320.9055806089565L186.59638554216863,319.2898394053209L189.26204819277092,317.8150132787016L191.9277108433732,315.90378679528055L194.59337349397606,314.15377251608675L197.25903614457835,312.90423368205046L199.92469879518063,311.885510777226L202.59036144578292,311.1619769355636L205.25602409638577,310.475689499268L207.92168674698806,309.85435699992695L210.58734939759034,309.29246502406085L213.25301204819266,309.595768069277L215.91867469879492,309.9739811760521L218.58433734939777,310.074801337817L221.25000000000006,309.69703800331683L223.91566265060234,307.64062795137824L226.58132530120463,305.3701808331896L229.24698795180748,303.8757037638637L231.91265060240977,302.7500153421476L234.57831325301206,302.30765967939635L237.24397590361437,301.91508643526663L239.90963855421666,300.7685304706896L242.57530120481948,299.1207914773819L245.2409638554218,296.9728216578177L247.90662650602408,295.24472268631786L250.57228915662637,294.27361629463553L253.23795180722868,294.09616235839945L255.9036144578315,294.79735194066797L258.5692771084338,296.10481745249007L261.2349397590361,297.2872744494624L263.9006024096384,297.9919399259415L266.56626506024065,296.60474776180166L269.23192771084354,294.6635497696393L271.89759036144585,293.9394344378795L274.56325301204805,293.82075209903644L277.22891566265037,293.20700905296565L279.89457831325325,291.9647987471717L282.5602409638555,290.5234000925664L285.22590361445776,289.2853410087705L287.8915662650601,288.74723589707855L290.5572289156624,288.47241899741203L293.2228915662652,289.13866468141646L295.88855421686753,290.03100464225963L298.5542168674698,289.801764832104L301.2198795180721,289.3151982617309L303.88554216867493,288.8012903909049L306.55120481927725,288.04895804659895L309.2168674698795,286.0880971758684L311.8825301204818,284.2452249209532L314.54819277108413,283.1111492722155L317.21385542168696,281.9513451123073L319.8795180722893,280.90750509171295L322.54518072289153,280.15932435470995L325.21084337349384,280.11064092990466L327.8765060240961,280.01709881039915L330.542168674699,279.9805171884733L333.20783132530124,280.1646591658056L335.8734939759035,280.01375127302373L338.5391566265058,278.939508094854L341.20481927710813,276.7816167617872L343.87048192771096,275.7306072911007L346.5361445783132,277.03318596396747L349.2018072289155,277.67162320830164L351.86746987951784,275.02235212417366L354.53313253012067,272.7195436860682L357.198795180723,271.7778456941585L359.86445783132524,270.0461713363476L362.53012048192755,268.6239587099376L365.19578313252987,268.03979603109684L367.8614457831327,268.6169085693785L370.52710843373495,269.20258457116984L373.19277108433727,267.42253983649664L375.8584337349396,264.2024615075511L378.5240963855424,259.8285566226328L381.1897590361447,255.8084406197834L383.855421686747,255.3788028648667L386.5210843373493,256.6671541636783L389.18674698795155,255.83691313486617L391.85240963855443,252.9694950404226L394.5180722891567,249.66871802943604L397.18373493975895,247.25738927722205L399.84939759036126,246.73215368101785L402.51506024096415,246.7508477460541L405.1807228915664,245.94866252264433L407.84638554216866,246.04916986715824L410.512048192771,243.98066923894638L413.1777108433733,239.3486373720235L415.84337349397555,235.1537758930888L418.50903614457843,234.33931364020287L421.1746987951807,235.3941808913181L423.840361445783,234.67516565617433L426.5060240963853,230.85308046038472L429.17168674698814,229.19465244220822L431.8373493975904,229.51259188346882L434.5030120481927,229.43893720165065L437.16867469879503,227.36447598918053L439.8343373493973,224.24306824780265L442.5000000000001,223.2684930888229L445.1656626506024,224.65322857727926L447.8313253012047,224.5244391969533L450.49698795180706,223.72084418348632L453.1626506024099,223.5487647705172L455.82831325301214,224.45132312963457L458.49397590361446,223.17183085998724L461.1596385542167,223.35688496440505L463.825301204819,229.27490388836026L466.4909638554219,243.62341127912745L469.1566265060241,246.86267227528091L471.8222891566265,234.3860192349388L474.48795180722874,229.48895937071106L477.15361445783157,223.7926898981659L479.8192771084339,217.91013763793663L482.48493975903614,219.01565584131586L485.1506024096384,222.7380054729885L487.81626506024077,217.6078366111887L490.48192771084297,207.85384907807222L493.14759036144585,207.75516601717933L495.81325301204816,209.09381291530872L498.4789156626504,210.16985930558562L501.14457831325274,210.61834193558596L503.8102409638556,217.76817197808526L506.4759036144578,215.923470637963L509.1415662650602,205.85479495572937L511.80722891566245,204.62484968833107L514.4728915662648,208.4237903955772L517.1385542168676,205.438901544892L519.8042168674699,197.75965899269914L522.4698795180722,195.4911995249459L525.1355421686744,198.1696350826353L527.8012048192772,201.54182845595804L530.4668674698796,195.00048400759138L533.1325301204819,193.33106658012642L535.7981927710842,191.9869219532004L538.4638554216865,188.82363252863817L541.1295180722893,193.4768521905846L543.7951807228917,199.040773229002L546.4608433734938,191.78171965295098L549.1265060240961,186.49688519413374L551.792168674699,185.3649108018706L554.4578313253013,190.287071278794L557.1234939759036,193.11536764975955L559.7891566265059,191.4522531204875L562.4548192771082,192.8928104103526L565.1204819277106,191.69108725526817L567.7861445783134,187.27438282100067L570.4518072289155,183.0394966983257L573.1174698795179,178.3276600603616L575.7831325301202,180.76292104099136L578.448795180723,188.17338912438544L581.1144578313254,181.0503311999101L583.7801204819276,175.7625524645397L586.44578313253,173.92998966992104L589.1114457831322,167.48827761722234L591.7771084337351,165.52228150737122L594.4427710843373,169.5148506680213L597.1084337349396,170.04009044490613L599.7740963855418,170.06454450374451L602.4397590361448,173.62410560230205L605.105421686747,172.59506369045502L607.7710843373493,163.66594616989437L610.4367469879517,159.27487781902863L613.1024096385539,163.2421951360453L615.7680722891569,166.42378087566294L618.433734939759,163.34958263417715L621.0993975903613,164.23172409884754L623.7650602409636,158.8431771552895L626.4307228915665,155.14752239537518L629.0963855421687,160.3652723420818L631.7620481927711,166.40111830290166L634.4277108433733,165.41454092517438L637.0933734939757,164.71245942469312L639.7590361445779,169.05774706959866L642.4246987951808,169.13495304022095L645.0903614457831,166.52111979925945L647.7560240963853,164.8580566063406L650.4216867469881,162.1963827336416L653.0873493975905,163.69198591046708L655.7530120481928,181.88326085058006L658.4186746987951,198.15492645665122L661.0843373493974,189.61794019012228L663.7499999999997,170.2217943430373L666.4156626506025,182.8886136662981L669.0813253012047,182.16058394619657L671.746987951807,169.5897453100224L674.4126506024094,166.64933962289547L677.0783132530122,160.41406409523105L679.7439759036145,161.6340855360704L682.4096385542168,163.32836416937607L685.0753012048191,157.23127987337793L687.7409638554213,155.70980472557727L690.4066265060243,153.48789585201519L693.0722891566264,161.0653813859015L695.7379518072288,162.90605432056935L698.403614457831,156.1456503445883L701.0692771084339,147.50177479386062L703.7349397590363,144.6289342216448L706.4006024096385,146.31497881115993L709.0662650602409,148.05443922957738L711.7319277108431,146.4687901602654L714.3975903614453,148.0027790484901L717.0632530120482,165.56674464980085L719.7289156626505,171.92767524249103L722.3945783132527,162.8584154045254L725.0602409638557,150.15960456322696L727.7259036144579,146.9723195975403L730.3915662650603,141.8342296748574L733.0572289156626,133.57814242526538L735.7228915662648,137.12354934665083L738.3885542168671,143.9703662195925L741.0542168674699,138.8282260898253L743.7198795180722,131.64110006033837L746.3855421686745,129.45139444088852L749.0512048192768,132.88593188849535L751.7168674698796,136.25829916684367L754.382530120482,145.34099525100882L757.0481927710842,149.53067588373236L759.7138554216866,137.92388194935174L762.3795180722888,135.41183920895452L765.0451807228917,137.79859619291673L767.710843373494,135.62483563789826L770.3765060240962,132.7576378728098L773.0421686746986,126.34180755132513L775.7078313253014,124.33333333333334L778.3734939759037,131.6636750437294L781.039156626506,139.92331106414585L783.7048192771083,140.1438816053358L786.3704819277106,131.8738326984858L789.0361445783128,131.22807428719588L791.7018072289156,131.74518795473963L794.3674698795179,134.05456482499946L797.0331325301203,139.52259250310408L799.6987951807231,141.82653466768372L802.3644578313254,144.2797345157875L805.0301204819277,147.99797617654826L807.69578313253,143.99316522954754L810.3614457831322,138.43572583642833L813.0271084337345,137.1266188080229L815.6927710843373,138.9867025803306L818.3584337349397,140.4011357993922L821.024096385542,142.42243650511506L823.6897590361448,139.51488233896904L826.3554216867471,134.8831333619064L829.0210843373494,139.24291096614195L831.6867469879518,139.41402383691454L834.352409638554,139.6046181886451L837.0180722891562,140.43410303454527L839.6837349397591,141.62378661226114L842.3493975903614,141.74432395481327L845.0150602409637,142.5608842467553L847.680722891566,148.9406933182683L850.3463855421688,150.4515926324844L853.0120481927712,147.2572096637647L855.6777108433735,146.22312613820134L858.3433734939757,146.98584198514902L861.009036144578,148.6950621281066L863.6746987951802,150.8275651226732L866.3403614457831,153.1069030233202L869.0060240963854,154.75995489847676L871.6716867469877,155.86029515892935L874.3373493975905,153.75158220055332L877.0030120481929,155.27558595702243L879.6686746987951,161.4906799685728L882.3343373493975,162.50724316838136L884.9999999999997,161.08389713822075L887.665662650602,160.2906626023613L890.3313253012049,160.69477694119476L892.9969879518071,159.99591919337482L895.6626506024094,161.3723822143092L898.3283132530122,163.9886951449445L900.9939759036147,166.1948864950123L903.6596385542169,169.51553279018174L906.3253012048192,171.45588433501544L908.9909638554213,171.0978136125946L911.6566265060236,168.80778846389873L914.3222891566267,171.45038639025165L916.9879518072289,178.14912285050298L919.6536144578312,177.71233381617776L922.3192771084334,175.137242202794L924.9849397590363,175.62847330715965L927.6506024096385,171.8316012379986L930.316265060241,167.21183353946768L932.9819277108431,171.1338966635054L935.6475903614454,175.3290679373792L938.3132530120477,173.40129792699483L940.9789156626505,172.636433121847L943.644578313253,170.73108776459674L946.3102409638552,172.28307169627428L948.975903614458,174.19312398945996L951.6415662650603,173.90597716311112L954.3072289156626,173.03518961964227L956.9728915662649,175.2285558636774L959.6385542168672,179.47205017835932L962.3042168674694,180.9406745137309L964.9698795180723,178.3969533363704L967.6355421686745,175.500669217671L970.3012048192768,174.16112582061837L972.9668674698798,176.0951226057133L975.6325301204821,180.18892942559765L978.2981927710844,182.6203328417657L980.9638554216866,181.3586234475625L983.6295180722888,179.4084082720811L986.2951807228912,180.57382632775278L988.9608433734941,183.90682689866406L991.6265060240963,187.16801810362546L994.2921686746986,187.0328643972014L996.9578313253008,182.02445898434024L999.6234939759037,178.40424307152855L1002.2891566265062,177.20491032827792L1004.9548192771083,177.57791325658764L1007.6204819277106,177.41219277422124L1010.2861445783128,177.27272998246366L1012.9518072289156,177.6285842937888L1015.6174698795181,178.77122439138597L1018.2831325301204,180.64373587069204L1020.9487951807226,181.2440449848467L1023.6144578313255,180.2384831252799L1026.2801204819277,179.13684169270618L1028.94578313253,176.67618735847736L1031.6114457831325,176.69307455959967L1034.2771084337346,177.74880355366565L1036.942771084337,179.70956824419966L1039.6084337349398,179.99540959135697L1042.274096385542,177.95549220797835L1044.9397590361443,175.684012561065L1047.6054216867471,174.0563695645946L1050.2710843373495,173.2306535894089L1052.9367469879517,173.11656058875263L1055.602409638554,172.39354915056185L1058.2680722891564,171.5034118169618L1060.9337349397588,170.10725188301302L1063.5993975903616,168.84036265126306L1066.2650602409637,168.92772129500045L1068.930722891566,169.27987998035064L1071.5963855421685,169.59019370673437L1074.2620481927713,169.87987822218506L1076.9277108433735,170.96527489430272L1079.5933734939758,173.2237930421647L1082.259036144578,176.1919647289793L1084.9246987951803,178.16523550783154L1087.5903614457834,178.11113628796218L1090.2560240963855,177.12401118830613L1092.9216867469877,177.1666580894337L1095.58734939759,178.87132460853087L1098.2530120481929,182.84102536017272L1100.918674698795,190.39693220355483L1103.5843373493976,200.9775613761509L1106.2499999999998,206.69449832015806L1108.9156626506021,204.7396664216205L1111.5813253012043,198.23433153891634L1114.2469879518071,194.41167646248616L1116.9126506024095,194.63027824545054L1119.5783132530119,196.34599096703903L1122.2439759036147,197.90310927028764L1124.9096385542168,198.86481354680637L1127.5753012048192,199.4550049401521L1130.2409638554216,200.10474336923L1132.906626506024,200.84574063791496L1135.572289156626,203.0786724337003L1138.237951807229,206.08195857631506L1140.903614457831,207.6698183900414L1143.5692771084337,207.64613191496727L1146.2349397590365,207.43165320833856L1148.9006024096386,207.1486573843395L1151.566265060241,207.8017649511807L1154.2319277108431,209.2293889649632L1156.8975903614455,210.84519673063014L1159.5632530120479,212.68881430016012L1162.2289156626507,214.04314416214487L1164.8945783132529,214.60370904616076L1167.5602409638552,214.98879141248779L1170.2259036144574,215.45469986301828L1172.8915662650602,216.73531129363366L1175.5572289156628,218.27007197084498L1178.222891566265,219.47845010811253L1180.8885542168673,220.56711218508514L1183.5542168674694,221.75514398532783L1186.2198795180718,222.55594634093845L1188.8855421686746,222.40388992057586L1191.551204819277,221.34784855223685L1194.2168674698792,221.2508069637523L1196.882530120482,222.0088354173298L1199.5481927710844,223.0072717331544L1202.2138554216867,223.86775902560407L1204.879518072289,225.26473804778098L1207.5451807228912,226.41806335155658L1210.2108433734934,227.3615141407615L1212.8765060240964,228.2013452767055L1215.5421686746986,228.638680592361L1218.207831325301,229.64561779401095L1220.8734939759038,231.13805115104145L1223.5391566265062,232.66600968905607L1226.2048192771083,233.79370028376573L1228.8704819277107,234.64556204671598L1231.536144578313,235.77005431397797L1234.2018072289152,237.5352510956867L1236.867469879518,238.55686208390637L1239.5331325301204,238.78286313168957L1242.1987951807225,239.0997119650369L1244.8644578313251,240.12131772587193L1247.530120481928,241.84138662711226L1250.19578313253,243.02383689965546L1252.8614457831325,244.27444477557557L1255.5271084337346,245.770486572922L1258.192771084337,247.1754864008621L1260.8584337349394,247.42611518059007L1263.5240963855422,247.99492660258215L1266.1897590361443,248.8372352243543L1268.8554216867467,250.6423702126665L1271.5210843373495,252.9491240500209L1274.186746987952,254.90190412522736L1276.8524096385543,255.21693004560825L1279.5180722891564,255.12958357824127L1282.1837349397588,254.5769366125422L1284.849397590361,254.66428381616055L1287.5150602409637,255.4037096520292L1290.1807228915661,256.5207461165033L1292.8463855421685,257.41307971490767L1295.5120481927713,258.1311970951985L1298.1777108433735,258.81695888728945L1300.8433734939758,259.77049532373985L1303.5090361445782,261.3549660693786L1306.1746987951803,262.91143127717663L1308.8403614457827,264.4394173669442L1311.5060240963849,265.7772465241854L1314.1716867469877,267.08735187998565L1316.8373493975903,268.5440142094319L1319.503012048193,269.6715885071038L1322.1686746987953,271.13771442870234L1324.8343373493976,272.75022739590577L1327.4999999999998,274.21719356927787L1330.1656626506021,275.34787048785597L1332.8313253012045,276.2831364884863L1335.4969879518067,276.9091225173162L1338.1626506024095,277.87149933736515L1340.8283132530119,279.21489280015936L1343.4939759036147,281.2909480005062L1346.159638554217,282.81569156933824L1348.8253012048194,283.9484444786984L1351.4909638554216,284.44188872152233L1354.156626506024,285.4445455172834L1356.822289156626,286.42332284071995L1359.4879518072285,287.31216586651584L1362.1536144578313,288.0825824265852L1364.8192771084337,288.97869376507873L1367.4849397590358,289.8870546954144L1370.1506024096386,290.64620740359237L1372.816265060241,290.8504838444413L1375.4819277108434,291.1556054636493L1378.1475903614457,291.6889422802175L1380.8132530120479,292.624086708569L1383.47891566265,293.4231420206888L1386.1445783132524,294.00789761992934L1388.8102409638554,294.7454779080105L1391.4759036144576,295.59579359218714L1394.1415662650604,296.284120396895L1396.8072289156628,297.04732112549067L1399.472891566265,297.5354073370782L1402.1385542168673,297.9744764927835L1404.8042168674697,298.3184430515872L1407.4698795180718,298.80612524524065L1410.1355421686742,299.4797966684357L1412.801204819277,300.2513160864139L1415.4668674698792,301.10817353326644L1418.132530120482,302.4016049566489L1420.7981927710846,303.47750565505237L1423.4638554216867,304.54272281611395L1426.129518072289,305.5729745963237L1428.7951807228912,306.37450452657254L1431.4608433734936,306.9437143722155L1434.126506024096,307.58301166366806L1436.7921686746988,308.0751428733616L1439.457831325301,308.70774731845063L1442.1234939759033,309.60434107092317L1444.7891566265062,310.27447095696346L1447.4548192771085,311.1190326318344L1450.120481927711,312.0588386246312L1452.786144578313,313.1577049675331L1455.4518072289152,314.3582739639411L1458.1174698795176,315.4550657922449L1460.78313253012,316.51440729932386L1463.4487951807228,317.4141787151225L1466.1144578313251,318.45740064042883L1468.780120481928,319.2621018961067L1471.44578313253,320.18373882630624L1474.1114457831325,321.18849482808184L1476.7771084337348,322.14780904616725L1479.442771084337,322.751169560221L1482.1084337349394,323.2156181126538L1484.7740963855415,323.57688195477095L1487.4397590361443,324.01941705670384L1490.105421686747,324.6563973761687L1492.7710843373497,325.3686434709017L1495.436746987952,325.8397553668788L1498.1024096385543,326.66136999618783L1500.7680722891564,327.11055713407126L1503.4337349397588,327.697831232022L1506.0993975903611,328.19742780963566L1508.7650602409633,329.0656905704889L1511.4307228915661,330.1454917948481L1514.0963855421685,331.6368157339702L1516.7620481927706,333.7792796388497L1519.4277108433737,335.4672295358345L1522.093373493976,336.1580968402838L1524.7590361445782,336.4522801245738L1527.4246987951803,335.8658559116321L1530.0903614457827,335.1757408082019L1532.756024096385,334.6910258971161L1535.421686746988,334.37178172518617L1538.0873493975903,334.49696013801343L1540.7530120481924,334.6887030976988L1543.4186746987953,335.0273439123424L1546.0843373493976,335.20597870495635L1548.75,335.49398393044765L1551.4156626506021,335.75233272903506L1554.0813253012045,336.16337712214954L1556.7469879518067,336.7115675552957L1559.412650602409,337.3845387917896L1562.078313253012,337.81824536008963L1564.7439759036142,338.46372539596723L1567.409638554217,339.09658084693785L1570.0753012048194,339.41149974336685L1572.7409638554216,339.8974096548328L1575.406626506024,340.33333527859793L1578.0722891566263,341.0084107748584L1580.7379518072285,341.71657825424836L1583.4036144578308,342.13521829925605L1586.0692771084337,342.55163265456025L1588.7349397590358,343.0559931018135L1591.4006024096389,343.61683261433586L1594.0662650602412,344.3170099706245L1596.7319277108434,344.81850786522557L1599.3975903614457,345.24483292279467L1602.0632530120479,345.62800128775046L1604.7289156626503,346.0944125396736L1607.3945783132526,346.5299183621161L1610.0602409638554,346.95770272203293L1612.7259036144576,347.2996563616409L1615.39156626506,347.79434767438187L1618.0572289156628,348.32305992436267L1620.7228915662652,348.8465310138073L1623.3885542168673,349.1683457828207L1626.0542168674697,349.61658716595133L1628.7198795180718,349.8794473134596L1631.3855421686742,350.37943400858165L1634.0512048192766,350.9592405053164L1636.7168674698794,351.49028599169105L1639.3825301204818,351.8695637768335L1642.0481927710846,352.22620965285677L1644.7138554216867,352.8429556853913L1647.379518072289,353.3992031227124L1650.0451807228915,353.8836144307331L1652.7108433734936,354.54652364137934L1655.376506024096,355.2079500865741L1658.0421686746981,355.87485659360067L1660.707831325301,356.55984124599826L1663.3734939759036,357.35953920432115L1666.0391566265064,358.13281100115836L1668.7048192771085,358.7695365911504L1671.370481927711,359.41366763476753L1674.036144578313,360.1376191371017L1676.7018072289154,360.87157870419423L1679.3674698795178,361.52318080634103L1682.03313253012,362.1457503742378L1684.6987951807228,362.9434908297779L1687.3644578313251,363.7210351472519L1690.0301204819275,364.4603915840673L1692.6957831325303,365.0481988807752L1695.3614457831327,365.6036964571294L1698.0271084337348,366.3124953254392L1700.692771084337,366.78012483715L1703.3584337349394,367.4131370795969L1706.0240963855417,368.09762083994696L1708.689759036144,368.6207682205288L1711.355421686747,369.0565782865752L1714.021084337349,369.5110870842644L1716.686746987952,369.85244085264617L1719.3524096385543,370.2688531691477L1722.0180722891566,370.5595859194052L1724.6837349397588,370.794471474331L1727.3493975903611,370.9182390184928L1730.0150602409633,371.1598515407378L1732.680722891566,371.2957200306598L1735.3463855421687,371.36115998853666L1738.0120481927709,371.5175435053952L1740.6777108433737,371.7708905098076L1743.343373493976,371.9196044698614L1746.0090361445782,372.0406593155188L1748.6746987951806,372.1528256160016L1751.340361445783,372.34192679751516L1754.006024096385,372.5104244905708L1756.6716867469875,372.53638558600034L1759.3373493975903,372.6527151164342L1762.0030120481924,372.7206775585952L1764.668674698795,372.844998861947L1767.3343373493979,372.93775796401906L1770,373" class="rv-xy-plot__series rv-xy-plot__series--line " transform="translate(100,20)" style="opacity: 1; stroke-width: 1px; stroke: rgb(26, 49, 119); fill: none;"/><g class="rv-xy-plot__series rv-xy-plot__series--custom-svg-wrapper " transform="translate(100,20)"><g class="rv-xy-plot__series--custom-svg" transform="translate(469.19458525116113,61.264669470973786)"><g class="etiqueta"><text><tspan x="0" y="18">4860.0</tspan></text></g></g></g><g class="rv-xy-plot__series rv-xy-plot__series--custom-svg-wrapper " transform="translate(100,20)"><g class="rv-xy-plot__series--custom-svg" transform="translate(469.19458525116113,61.264669470973786)"><g class="etiqueta cursor-normal"><polyline points="0,5,0,18,0,18" stroke="black" fill="none"/></g></g></g><g class="rv-xy-plot__series rv-xy-plot__series--custom-svg-wrapper " transform="translate(100,20)"><g class="rv-xy-plot__series--custom-svg" transform="translate(1523.3238590308558,105.91238175347524)"><g class="etiqueta"><text><tspan x="0" y="18">6560.0</tspan></text></g></g></g><g class="rv-xy-plot__series rv-xy-plot__series--custom-svg-wrapper " transform="translate(100,20)"><g class="rv-xy-plot__series--custom-svg" transform="translate(1523.3238590308558,105.91238175347524)"><g class="etiqueta cursor-normal"><polyline points="0,5,0,18,0,18" stroke="black" fill="none"/></g></g></g></svg>